<?xml version="1.0" standalone="yes"?>

<svg version="1.1" viewBox="0.0 0.0 1634.8267716535433 1069.6299212598426" fill="none" stroke="none" stroke-linecap="square" stroke-miterlimit="10" xmlns="http://www.w3.org/2000/svg" xmlns:xlink="http://www.w3.org/1999/xlink"><clipPath id="p.0"><path d="m0 0l1634.8268 0l0 1069.6299l-1634.8268 0l0 -1069.6299z" clip-rule="nonzero"></path></clipPath><g clip-path="url(#p.0)"><path fill="#000000" fill-opacity="0.0" d="m0 0l1634.8268 0l0 1069.6299l-1634.8268 0z" fill-rule="nonzero"></path><path fill="#3399ff" d="m476.87158 807.1838l300.1745 -710.8062l235.96313 687.7354z" fill-rule="nonzero"></path><path stroke="#f9f9f9" stroke-width="12.0" stroke-linejoin="round" stroke-linecap="butt" d="m476.87158 807.1838l300.1745 -710.8062l235.96313 687.7354z" fill-rule="nonzero"></path><path fill="#3399ff" d="m564.334 894.6461l300.1745 -710.80615l235.9632 687.7355z" fill-rule="nonzero"></path><path stroke="#f9f9f9" stroke-width="12.0" stroke-linejoin="round" stroke-linecap="butt" d="m564.334 894.6461l300.1745 -710.80615l235.9632 687.7355z" fill-rule="nonzero"></path><path fill="#3399ff" d="m651.7964 982.1085l300.1745 -710.80615l235.96307 687.7355z" fill-rule="nonzero"></path><path stroke="#f9f9f9" stroke-width="12.0" stroke-linejoin="round" stroke-linecap="butt" d="m651.7964 982.1085l300.1745 -710.80615l235.96307 687.7355z" fill-rule="nonzero"></path><path fill="#ffffff" d="m1722.8938 820.0872l297.27515 -703.9015l233.68384 681.0548z" fill-rule="nonzero"></path><path stroke="#3399ff" stroke-width="12.0" stroke-linejoin="round" stroke-linecap="butt" d="m1722.8938 820.0872l297.27515 -703.9015l233.68384 681.0548z" fill-rule="nonzero"></path><path fill="#ffffff" d="m1809.5114 906.7l297.27527 -703.9015l233.68384 681.0548z" fill-rule="nonzero"></path><path stroke="#3399ff" stroke-width="12.0" stroke-linejoin="round" stroke-linecap="butt" d="m1809.5114 906.7l297.27527 -703.9015l233.68384 681.0548z" fill-rule="nonzero"></path><path fill="#ffffff" d="m1896.129 993.3128l297.27502 -703.9015l233.68408 681.0548z" fill-rule="nonzero"></path><path stroke="#3399ff" stroke-width="12.0" stroke-linejoin="round" stroke-linecap="butt" d="m1896.129 993.3128l297.27502 -703.9015l233.68408 681.0548z" fill-rule="nonzero"></path></g></svg>

